<?xml version="1.0" encoding="utf-8"?>
<!-- Generator: Adobe Illustrator 26.5.0, SVG Export Plug-In . SVG Version: 6.00 Build 0)  -->
<svg version="1.1" id="Layer_1" xmlns="http://www.w3.org/2000/svg" xmlns:xlink="http://www.w3.org/1999/xlink" x="0px" y="0px"
	 viewBox="0 0 512 512" style="enable-background:new 0 0 512 512;" xml:space="preserve">
<style type="text/css">
	.st0{fill:#539E43;}
</style>
<g>
	<path class="st0" d="M256,511.99c-7.01,0-13.61-1.82-19.78-5.19l-62.56-37.17c-9.4-5.19-4.77-7.01-1.82-8
		c12.76-4.21,15.01-5.19,28.19-12.76c1.4-0.98,3.23-0.42,4.77,0.42l47.97,28.75c1.82,0.98,4.21,0.98,5.61,0l187.67-108.7
		c1.82-0.98,2.81-2.81,2.81-5.19V147.44c0-2.38-0.98-4.21-2.81-5.19L258.38,34.11c-1.82-0.98-4.21-0.98-5.61,0L65.1,142.25
		c-1.82,0.98-2.81,3.23-2.81,5.19v216.85c0,1.82,0.98,4.21,2.81,5.19l51.34,29.6c27.77,14.17,45.17-2.38,45.17-18.8V166.24
		c0-2.81,2.38-5.61,5.61-5.61h23.99c2.81,0,5.61,2.38,5.61,5.61v214.04c0,37.17-20.2,58.77-55.54,58.77c-10.8,0-19.22,0-43.2-11.78
		l-49.51-28.19c-12.2-7.01-19.78-20.2-19.78-34.36V148c0-14.17,7.57-27.21,19.78-34.36L236.22,4.93c11.78-6.59,27.77-6.59,39.55,0
		l187.67,108.7c12.2,7.01,19.78,20.2,19.78,34.36v216.85c0,14.17-7.57,27.21-19.78,34.36l-187.67,108.7
		C269.61,510.58,262.59,511.99,256,511.99z M313.79,362.89c-82.34,0-99.31-37.59-99.31-69.57c0-2.81,2.38-5.61,5.61-5.61h24.69
		c2.81,0,5.19,1.82,5.19,4.77c3.79,24.97,14.59,37.17,64.38,37.17c39.55,0,56.39-8.98,56.39-30.16c0-12.2-4.77-21.18-66.35-27.21
		c-51.34-5.19-83.32-16.41-83.32-57.37c0-38.15,31.98-60.73,85.56-60.73c60.17,0,89.77,20.76,93.56,65.78c0,1.4-0.42,2.81-1.4,4.21
		c-0.98,0.98-2.38,1.82-3.79,1.82H370.6c-2.38,0-4.77-1.82-5.19-4.21c-5.61-25.81-20.2-34.36-58.77-34.36
		c-43.2,0-48.39,15.01-48.39,26.37c0,13.61,6.17,17.81,64.38,25.39c57.79,7.57,85.14,18.37,85.14,58.77
		C407.49,339.32,373.54,362.89,313.79,362.89z"/>
</g>
</svg>
